<svg width="20" height="20" viewBox="0 0 20 20" fill="none" xmlns="http://www.w3.org/2000/svg">
<path d="M1.09769 6.06647H12.1595V4.03989H1.09769C0.491482 4.03989 0 4.49357 0 5.05316C0 5.61275 0.491482 6.06647 1.09769 6.06647Z" fill="black"/>
<path d="M1.09769 10.6263H12.1595V8.5997H1.09769C0.491482 8.5997 0 9.05338 0 9.61301C0 10.1726 0.491482 10.6263 1.09769 10.6263Z" fill="black"/>
<path d="M1.11053 13.1595C0.49723 13.1595 0 13.6132 0 14.1728C0 14.7325 0.49723 15.1861 1.11053 15.1861H9.41547C8.81564 14.5207 8.81564 14.2197 8.81564 14.1728C8.81564 14.093 8.81564 13.7207 9.03039 13.1595H1.11053Z" fill="black"/>
<path d="M19.7592 12.6529C19.1041 12.0106 18.2392 12.6529 17.7326 13.1595L16.7193 14.1728L16.1611 14.7566V2.39558C16.1611 1.62479 15.9406 1 15.1543 1C14.3681 1 14.097 1.62483 14.097 2.39558V14.7566L12.562 13.178C12.0061 12.633 11.1958 12.1078 10.6398 12.6529C10.1333 13.1496 10.5909 14.1344 11.1468 14.6794L14.1866 18.226C14.7414 18.7701 15.6568 18.7719 16.2132 18.226L19.253 14.6794C19.8089 14.1344 20.3151 13.1979 19.7592 12.6529Z" fill="black"/>
</svg>
