<svg width="20" height="20" viewBox="0 0 20 20" fill="none" xmlns="http://www.w3.org/2000/svg">
<path d="M19.9097 7.50114C19.6695 6.73361 19.0136 6.23766 18.2388 6.23766H13.2427L11.6694 1.25872C11.4276 0.493336 10.7731 0 10.0005 0C9.99809 0 9.99555 -2.23596e-08 9.99309 4.06786e-05C9.21741 0.00321535 8.56317 0.502657 8.32636 1.27243L6.79891 6.23766H1.7612C0.984513 6.23766 0.328118 6.73528 0.08901 7.50534C-0.150137 8.2754 0.102094 9.0794 0.731618 9.55357L4.80766 12.6238L3.23874 17.589C2.99592 18.3574 3.24393 19.1625 3.87056 19.6401C4.18529 19.88 4.54653 20 4.908 20C5.26619 20 5.62458 19.8821 5.93774 19.6462L10.0209 16.5707L14.0555 19.641C14.6814 20.1174 15.492 20.1197 16.1205 19.647C16.749 19.1743 17.0022 18.3719 16.7657 17.6027L15.2339 12.6238L19.2753 9.54832C19.901 9.0722 20.1501 8.26864 19.9097 7.50114Z" fill="black"/>
</svg>
